<svg width="25" height="20" viewBox="0 0 25 20" fill="none" xmlns="http://www.w3.org/2000/svg">
<path fill-rule="evenodd" clip-rule="evenodd" d="M20.5681 0.421875H3.45125L0.126953 6.19962L12.1597 19.3603L24.3569 6.18447L20.5681 0.421875ZM3.85245 1.72976L1.60721 5.63207H6.92358L3.85245 1.72976ZM7.5868 6.63207H1.87731L10.9647 16.5712L7.5868 6.63207ZM13.3583 16.5935L22.5798 6.63207H16.7924L13.3583 16.5935ZM15.7347 6.63207L12.1635 16.9911L8.64297 6.63207H15.7347ZM15.4321 5.63207H9.02469L12.4114 1.76503L15.4321 5.63207ZM17.4379 5.63207H22.7969L20.315 1.85718L17.4379 5.63207ZM19.3894 1.42188H13.4123L16.4375 5.29484L19.3894 1.42188ZM11.3827 1.42188H4.88269L7.95913 5.33094L11.3827 1.42188Z" fill="#4A7BF6"/>
</svg>
