<svg width="281" height="281" viewBox="0 0 281 281" fill="none" xmlns="http://www.w3.org/2000/svg">
<path fill-rule="evenodd" clip-rule="evenodd" d="M140.309 265.277C209.043 265.277 264.763 209.557 264.763 140.823C264.763 72.0895 209.043 16.3697 140.309 16.3697C71.5753 16.3697 15.8556 72.0895 15.8556 140.823C15.8556 209.557 71.5753 265.277 140.309 265.277ZM140.309 280.823C217.629 280.823 280.309 218.143 280.309 140.823C280.309 63.5034 217.629 0.823242 140.309 0.823242C62.9892 0.823242 0.309082 63.5034 0.309082 140.823C0.309082 218.143 62.9892 280.823 140.309 280.823Z" fill="url(#paint0_linear_660_1069)"/>
<path d="M178.69 118.482C181.669 115.76 183.537 111.844 183.537 107.492C183.537 99.2728 176.874 92.6099 168.655 92.6099C160.436 92.6099 153.774 99.2728 153.774 107.492C153.774 108.018 153.801 108.537 153.854 109.049C153.96 111.32 153.716 115.981 151.983 120.064C150.104 124.493 145.758 126.874 143.82 127.511C142.78 128.102 137.961 129.592 126.921 130.957C119.012 131.306 112.706 137.829 112.706 145.824C112.706 151.749 116.169 156.866 121.181 159.26C124.964 161.139 128.156 161.411 131.648 161.709C132.887 161.815 134.164 161.924 135.519 162.109C139.817 162.697 143.25 165.539 144.428 166.886C150.685 174.568 150.785 181.32 150.102 185.194C149.878 186.221 149.76 187.288 149.76 188.382C149.76 196.601 156.423 203.264 164.642 203.264C172.861 203.264 179.524 196.601 179.524 188.382C179.524 180.429 173.286 173.933 165.436 173.521C152.968 172.109 149.38 169.023 146.036 164.727C142.778 160.542 142.059 152.224 142.38 147.475C142.408 147.214 142.431 146.951 142.446 146.687L142.465 146.5L142.455 146.506C142.465 146.28 142.47 146.053 142.47 145.824C142.47 145.247 142.437 144.678 142.373 144.118C142.324 140.314 143.585 132.899 149.164 127.901C154.707 122.935 160.561 123.021 163.714 123.068C163.992 123.072 164.249 123.076 164.483 123.076C166.256 123.123 169.448 122.861 172.627 121.838C174.216 121.399 175.698 120.703 177.025 119.799C177.624 119.408 178.193 118.974 178.717 118.492L178.69 118.482Z" fill="url(#paint1_linear_660_1069)"/>
<path d="M131.595 106.793C131.595 114.264 125.539 120.32 118.068 120.32C110.597 120.32 104.54 114.264 104.54 106.793C104.54 99.322 110.597 93.2655 118.068 93.2655C125.539 93.2655 131.595 99.322 131.595 106.793Z" fill="url(#paint2_linear_660_1069)"/>
<path d="M131.595 187.23C131.595 194.701 125.539 200.757 118.068 200.757C110.597 200.757 104.54 194.701 104.54 187.23C104.54 179.759 110.597 173.702 118.068 173.702C125.539 173.702 131.595 179.759 131.595 187.23Z" fill="url(#paint3_linear_660_1069)"/>
<defs>
<linearGradient id="paint0_linear_660_1069" x1="-35.6348" y1="0.823221" x2="267.517" y2="27.5482" gradientUnits="userSpaceOnUse">
<stop stop-color="#B97BCC"/>
<stop offset="1" stop-color="#4A7BF6"/>
</linearGradient>
<linearGradient id="paint1_linear_660_1069" x1="-35.6348" y1="0.823221" x2="267.517" y2="27.5482" gradientUnits="userSpaceOnUse">
<stop stop-color="#B97BCC"/>
<stop offset="1" stop-color="#4A7BF6"/>
</linearGradient>
<linearGradient id="paint2_linear_660_1069" x1="-35.6348" y1="0.823221" x2="267.517" y2="27.5482" gradientUnits="userSpaceOnUse">
<stop stop-color="#B97BCC"/>
<stop offset="1" stop-color="#4A7BF6"/>
</linearGradient>
<linearGradient id="paint3_linear_660_1069" x1="-35.6348" y1="0.823221" x2="267.517" y2="27.5482" gradientUnits="userSpaceOnUse">
<stop stop-color="#B97BCC"/>
<stop offset="1" stop-color="#4A7BF6"/>
</linearGradient>
</defs>
</svg>
