<svg width="83" height="30" viewBox="0 0 83 30" fill="none" xmlns="http://www.w3.org/2000/svg">
<path d="M20.1045 7.00289C20.9104 6.2652 21.4157 5.20462 21.4157 4.02601C21.4157 1.79765 19.6093 -0.00878906 17.3809 -0.00878906C15.1526 -0.00878906 13.3461 1.79765 13.3461 4.02601C13.3461 4.17574 13.3543 4.32356 13.3702 4.46906C13.3961 5.09318 13.3257 6.33868 12.8619 7.43129C12.3523 8.6319 11.174 9.27755 10.6485 9.4503C10.3651 9.61128 9.04651 10.0186 6.01986 10.3904C3.89748 10.5085 2.21287 12.267 2.21287 14.4189C2.21287 16.0505 3.18135 17.4559 4.57481 18.0916C5.57279 18.573 6.42216 18.6455 7.34918 18.7246C7.68522 18.7533 8.03147 18.7829 8.39869 18.8331C9.56415 18.9925 10.4947 19.7628 10.8143 20.1281C12.5006 22.1985 12.5373 24.0197 12.3558 25.0732C12.2923 25.3574 12.2588 25.653 12.2588 25.9564C12.2588 28.1848 14.0652 29.9912 16.2936 29.9912C18.5219 29.9912 20.3284 28.1848 20.3284 25.9564C20.3284 23.8026 18.6409 22.043 16.5159 21.9276C13.1307 21.5451 12.1572 20.7083 11.25 19.5429C10.3622 18.4022 10.1699 16.1293 10.2602 14.8454C10.2662 14.7881 10.271 14.7304 10.2746 14.6724C10.277 14.6481 10.2795 14.6243 10.2821 14.6009L10.2783 14.603C10.2811 14.542 10.2825 14.4806 10.2825 14.4189C10.2825 14.2633 10.2737 14.1098 10.2565 13.9588C10.2418 12.9292 10.5821 10.9138 12.0976 9.55589C13.6003 8.20948 15.1876 8.23295 16.0424 8.2456C16.1177 8.24671 16.1874 8.24774 16.2508 8.24774C16.7198 8.26033 17.5545 8.19295 18.3952 7.93226C18.8857 7.80525 19.34 7.58829 19.7395 7.30003C19.8696 7.2099 19.9937 7.11177 20.1098 7.00502L20.1045 7.00289Z" fill="url(#paint0_angular_551_889)"/>
<path d="M7.33515 3.83535C7.33515 5.8609 5.69312 7.50293 3.66758 7.50293C1.64203 7.50293 0 5.8609 0 3.83535C0 1.80981 1.64203 0.167775 3.66758 0.167775C5.69312 0.167775 7.33515 1.80981 7.33515 3.83535Z" fill="url(#paint1_angular_551_889)"/>
<path d="M3.66758 29.3127C5.69312 29.3127 7.33515 27.6707 7.33515 25.6452C7.33515 23.6196 5.69312 21.9776 3.66758 21.9776C1.64203 21.9776 0 23.6196 0 25.6452C0 27.6707 1.64203 29.3127 3.66758 29.3127Z" fill="url(#paint2_angular_551_889)"/>
<path fill-rule="evenodd" clip-rule="evenodd" d="M73.6503 21.7893C74.4784 22.7601 75.6563 23.2455 77.1839 23.2455C77.8692 23.2455 78.4546 23.1456 78.94 22.9457C79.4254 22.7458 79.8324 22.4817 80.1607 22.1533C80.4891 21.8107 80.7532 21.4395 80.9531 21.0397H81.0173L81.1887 23.0314H82.1738V6.75539H80.9531V11.3812C80.9531 11.7096 80.9602 12.0808 80.9745 12.4948C81.0031 12.8946 81.0245 13.2658 81.0388 13.6084H80.9531C80.7675 13.1944 80.5034 12.8232 80.1607 12.4948C79.8324 12.1664 79.4326 11.9095 78.9614 11.7238C78.4903 11.524 77.9335 11.424 77.291 11.424C75.7776 11.424 74.5855 11.938 73.7146 12.966C72.8579 13.9939 72.4296 15.493 72.4296 17.4633C72.4296 19.3621 72.8365 20.8041 73.6503 21.7893ZM80.1393 20.9969C79.5968 21.7964 78.6616 22.1962 77.3338 22.1962C76.106 22.1962 75.1923 21.7964 74.5926 20.9969C73.993 20.1974 73.6932 19.0266 73.6932 17.4847C73.6932 15.8714 74.0073 14.6364 74.6355 13.7798C75.2636 12.9089 76.1917 12.4734 77.4195 12.4734C78.6902 12.4734 79.5968 12.8946 80.1393 13.7369C80.6961 14.565 80.9745 15.7643 80.9745 17.3348V17.5275C80.9745 19.0409 80.6961 20.1974 80.1393 20.9969Z" fill="url(#paint3_angular_551_889)"/>
<path d="M61.1681 11.6359H62.4745L65.1729 18.7245C65.3299 19.1386 65.4727 19.524 65.6012 19.881C65.7297 20.2379 65.8439 20.5734 65.9439 20.8875C66.0438 21.1873 66.1295 21.4657 66.2008 21.7227H66.2651C66.365 21.3944 66.5007 20.9732 66.672 20.4592C66.8433 19.9309 67.0432 19.3599 67.2716 18.7459L69.9272 11.6359H71.2336L66.0938 25.0636C65.8368 25.7203 65.5512 26.2843 65.2371 26.7554C64.923 27.2266 64.5518 27.5835 64.1235 27.8262C63.6952 28.0832 63.1812 28.2117 62.5816 28.2117C62.3103 28.2117 62.0605 28.1903 61.832 28.1475C61.6179 28.1189 61.4109 28.0761 61.211 28.019V26.991C61.3966 27.0338 61.5822 27.0695 61.7678 27.0981C61.9677 27.1409 62.189 27.1623 62.4317 27.1623C62.8314 27.1623 63.1812 27.0767 63.481 26.9053C63.7809 26.7483 64.045 26.4984 64.2734 26.1558C64.5019 25.8274 64.7089 25.4134 64.8945 24.9137L65.644 22.9863L61.1681 11.6359Z" fill="url(#paint4_angular_551_889)"/>
<path fill-rule="evenodd" clip-rule="evenodd" d="M58.4693 12.3863C57.8411 11.7581 56.8845 11.444 55.5996 11.444C54.9143 11.444 54.2504 11.5297 53.6079 11.701C52.9654 11.8724 52.3801 12.0936 51.8518 12.3649L52.2373 13.3286C52.7798 13.0574 53.3152 12.8503 53.8435 12.7076C54.386 12.5505 54.95 12.472 55.5353 12.472C56.4205 12.472 57.0844 12.7076 57.527 13.1787C57.9839 13.6356 58.2123 14.428 58.2123 15.5559V16.3697L56.135 16.4553C54.3646 16.541 53.0154 16.8836 52.0874 17.4833C51.1594 18.0686 50.6954 18.9253 50.6954 20.0532C50.6954 20.7385 50.8381 21.3167 51.1237 21.7879C51.4092 22.259 51.8161 22.6231 52.3444 22.8801C52.8726 23.1228 53.4937 23.2441 54.2076 23.2441C54.9214 23.2441 55.5211 23.1585 56.0065 22.9871C56.5062 22.8015 56.9274 22.5517 57.27 22.2376C57.6269 21.9092 57.941 21.5309 58.2123 21.1025H58.2766L58.4907 23.03H59.4116V15.3845C59.4116 14.0139 59.0975 13.0145 58.4693 12.3863ZM53.0297 18.1258C53.7435 17.6832 54.8215 17.4262 56.2635 17.3548L58.2123 17.2691V18.3827C58.198 19.5963 57.8625 20.5386 57.2058 21.2096C56.5633 21.8807 55.6353 22.2162 54.4217 22.2162C53.665 22.2162 53.0654 22.0377 52.6228 21.6808C52.1802 21.3096 51.9589 20.7742 51.9589 20.0746C51.9589 19.2037 52.3158 18.5541 53.0297 18.1258Z" fill="url(#paint5_angular_551_889)"/>
<path d="M47.8151 23.0314H46.5944V6.75539H47.8151V23.0314Z" fill="url(#paint6_angular_551_889)"/>
<path d="M43.2353 23.032H44.713L38.3097 14.2515L44.5417 7.74114H43.0212L37.346 13.6733L36.4037 14.7013C36.0896 15.0296 35.7898 15.358 35.5042 15.6864V7.74114H34.2621V23.032H35.5042V16.9285L37.4102 15.1082L43.2353 23.032Z" fill="url(#paint7_angular_551_889)"/>
<defs>
<radialGradient id="paint0_angular_551_889" cx="0" cy="0" r="1" gradientUnits="userSpaceOnUse" gradientTransform="translate(41.0869 14.9912) rotate(90) scale(15 14.9997)">
<stop offset="0.118568" stop-color="#ED84BF"/>
<stop offset="0.337735" stop-color="#98C8E7"/>
<stop offset="0.856474" stop-color="#4A7BF6"/>
</radialGradient>
<radialGradient id="paint1_angular_551_889" cx="0" cy="0" r="1" gradientUnits="userSpaceOnUse" gradientTransform="translate(41.0869 14.9912) rotate(90) scale(15 14.9997)">
<stop offset="0.118568" stop-color="#ED84BF"/>
<stop offset="0.337735" stop-color="#98C8E7"/>
<stop offset="0.856474" stop-color="#4A7BF6"/>
</radialGradient>
<radialGradient id="paint2_angular_551_889" cx="0" cy="0" r="1" gradientUnits="userSpaceOnUse" gradientTransform="translate(41.0869 14.9912) rotate(90) scale(15 14.9997)">
<stop offset="0.118568" stop-color="#ED84BF"/>
<stop offset="0.337735" stop-color="#98C8E7"/>
<stop offset="0.856474" stop-color="#4A7BF6"/>
</radialGradient>
<radialGradient id="paint3_angular_551_889" cx="0" cy="0" r="1" gradientUnits="userSpaceOnUse" gradientTransform="translate(41.0869 14.9912) rotate(90) scale(15 14.9997)">
<stop offset="0.118568" stop-color="#ED84BF"/>
<stop offset="0.337735" stop-color="#98C8E7"/>
<stop offset="0.856474" stop-color="#4A7BF6"/>
</radialGradient>
<radialGradient id="paint4_angular_551_889" cx="0" cy="0" r="1" gradientUnits="userSpaceOnUse" gradientTransform="translate(41.0869 14.9912) rotate(90) scale(15 14.9997)">
<stop offset="0.118568" stop-color="#ED84BF"/>
<stop offset="0.337735" stop-color="#98C8E7"/>
<stop offset="0.856474" stop-color="#4A7BF6"/>
</radialGradient>
<radialGradient id="paint5_angular_551_889" cx="0" cy="0" r="1" gradientUnits="userSpaceOnUse" gradientTransform="translate(41.0869 14.9912) rotate(90) scale(15 14.9997)">
<stop offset="0.118568" stop-color="#ED84BF"/>
<stop offset="0.337735" stop-color="#98C8E7"/>
<stop offset="0.856474" stop-color="#4A7BF6"/>
</radialGradient>
<radialGradient id="paint6_angular_551_889" cx="0" cy="0" r="1" gradientUnits="userSpaceOnUse" gradientTransform="translate(41.0869 14.9912) rotate(90) scale(15 14.9997)">
<stop offset="0.118568" stop-color="#ED84BF"/>
<stop offset="0.337735" stop-color="#98C8E7"/>
<stop offset="0.856474" stop-color="#4A7BF6"/>
</radialGradient>
<radialGradient id="paint7_angular_551_889" cx="0" cy="0" r="1" gradientUnits="userSpaceOnUse" gradientTransform="translate(41.0869 14.9912) rotate(90) scale(15 14.9997)">
<stop offset="0.118568" stop-color="#ED84BF"/>
<stop offset="0.337735" stop-color="#98C8E7"/>
<stop offset="0.856474" stop-color="#4A7BF6"/>
</radialGradient>
</defs>
</svg>
