<svg width="22" height="30" viewBox="0 0 22 30" fill="none" xmlns="http://www.w3.org/2000/svg">
<path d="M19.7726 7.5418L19.2667 6.98811L18.3846 7.79407L19.4939 8.23809L19.7726 7.5418ZM13.4846 5.15877L14.2338 5.12458L14.2328 5.10233L14.2304 5.08017L13.4846 5.15877ZM13.0106 7.94265L13.701 8.23568L13.0106 7.94265ZM10.9436 9.82818L10.7094 9.1157L10.6383 9.13907L10.5732 9.17601L10.9436 9.82818ZM6.66517 10.7007L6.69823 11.45L6.72783 11.4486L6.75724 11.445L6.66517 10.7007ZM5.22501 17.8732L5.55699 17.2006L5.54567 17.1952L5.22501 17.8732ZM7.86241 18.4871L7.93894 17.7409L7.9262 17.7398L7.86241 18.4871ZM7.86247 18.4871L7.78593 19.2333L7.79867 19.2343L7.86247 18.4871ZM8.84253 18.5883L8.74091 19.3314H8.74092L8.84253 18.5883ZM11.0984 19.7977L11.6799 19.3241L11.6716 19.3138L11.6629 19.3038L11.0984 19.7977ZM12.5363 24.4255L13.2687 24.587L13.2723 24.5708L13.2752 24.5544L12.5363 24.4255ZM16.4178 21.4777L16.3334 22.2229L16.3558 22.2255L16.3783 22.2267L16.4178 21.4777ZM11.5054 19.2512L10.9135 19.7118H10.9135L11.5054 19.2512ZM10.5804 14.8721L9.83472 14.792L9.8332 14.8061L9.83222 14.8203L10.5804 14.8721ZM10.5953 14.694L9.84898 14.62L9.84754 14.6345L9.84666 14.6491L10.5953 14.694ZM10.6014 14.636L11.3469 14.7185L11.5086 13.2573L10.2306 13.984L10.6014 14.636ZM10.5983 14.6377L9.84904 14.6039L9.7878 15.9614L10.969 15.2897L10.5983 14.6377ZM10.5774 14.0309L9.82749 14.0403L9.82796 14.0785L9.83232 14.1164L10.5774 14.0309ZM12.2969 9.92679L11.7964 9.36821L12.2969 9.92679ZM15.9809 8.70312L15.9698 9.45303L15.9698 9.45304L15.9809 8.70312ZM16.1756 8.70512L16.1957 7.95539L16.1856 7.95512H16.1756V8.70512ZM18.2406 8.39077L18.0402 7.66802L18.0253 7.67217L18.0105 7.67693L18.2406 8.39077ZM19.3425 7.88106L18.9346 7.25172L18.9282 7.25586L18.9219 7.26014L19.3425 7.88106ZM19.7794 7.54455L20.2871 8.09662L21.1635 7.29071L20.0582 6.84826L19.7794 7.54455ZM20.2498 4.75928C20.2498 5.64191 19.8718 6.4352 19.2667 6.98811L20.2785 8.09549C21.1816 7.27036 21.7498 6.08063 21.7498 4.75928H20.2498ZM17.2317 1.74121C18.8985 1.74121 20.2498 3.09245 20.2498 4.75928H21.7498C21.7498 2.26402 19.727 0.241211 17.2317 0.241211V1.74121ZM14.2136 4.75928C14.2136 3.09245 15.5649 1.74121 17.2317 1.74121V0.241211C14.7364 0.241211 12.7136 2.26402 12.7136 4.75928H14.2136ZM14.2304 5.08017C14.2193 4.97497 14.2136 4.86792 14.2136 4.75928H12.7136C12.7136 4.92052 12.7221 5.08004 12.7387 5.23738L14.2304 5.08017ZM13.701 8.23568C14.198 7.0648 14.263 5.76507 14.2338 5.12458L12.7353 5.19296C12.7588 5.70616 12.6982 6.75913 12.3203 7.64961L13.701 8.23568ZM11.1779 10.5407C11.7862 10.3407 13.1102 9.62759 13.701 8.23568L12.3203 7.64961C11.9592 8.50018 11.0824 8.99305 10.7094 9.1157L11.1779 10.5407ZM6.75724 11.445C8.17331 11.2699 9.20268 11.0853 9.92007 10.9222C10.6033 10.7669 11.0749 10.6161 11.314 10.4804L10.5732 9.17601C10.5787 9.17292 10.5151 9.20556 10.3306 9.264C10.1601 9.318 9.91647 9.38477 9.58762 9.45951C8.93041 9.60889 7.95222 9.78577 6.57311 9.95635L6.75724 11.445ZM3.81603 14.465C3.81603 12.8437 5.09476 11.5207 6.69823 11.45L6.63212 9.95141C4.23028 10.0574 2.31603 12.0374 2.31603 14.465H3.81603ZM5.54567 17.1952C4.52178 16.711 3.81603 15.6697 3.81603 14.465H2.31603C2.31603 16.2712 3.37591 17.8283 4.90434 18.5512L5.54567 17.1952ZM7.9262 17.7398C7.04677 17.6647 6.3698 17.6019 5.55694 17.2007L4.89307 18.5458C5.98457 19.0845 6.91787 19.1592 7.79862 19.2343L7.9262 17.7398ZM7.93899 17.741L7.93893 17.741L7.78589 19.2331L7.78594 19.2331L7.93899 17.741ZM8.94416 17.8453C8.57959 17.7954 8.23796 17.7664 7.92626 17.7398L7.79867 19.2343C8.11458 19.2613 8.41962 19.2875 8.74091 19.3314L8.94416 17.8453ZM11.6629 19.3038C11.29 18.8777 10.2693 18.0265 8.94415 17.8453L8.74092 19.3314C9.59254 19.4479 10.3099 20.0355 10.534 20.2916L11.6629 19.3038ZM13.2752 24.5544C13.4785 23.3889 13.4159 21.4554 11.6799 19.3241L10.5169 20.2713C11.941 22.0198 11.9369 23.4975 11.7975 24.2966L13.2752 24.5544ZM13.198 25.2405C13.198 25.0153 13.2225 24.7967 13.2687 24.587L11.8039 24.264C11.7344 24.5791 11.698 24.906 11.698 25.2405H13.198ZM16.216 28.2585C14.5492 28.2585 13.198 26.9073 13.198 25.2405H11.698C11.698 27.7357 13.7208 29.7585 16.216 29.7585V28.2585ZM19.2341 25.2405C19.2341 26.9073 17.8829 28.2585 16.216 28.2585V29.7585C18.7113 29.7585 20.7341 27.7357 20.7341 25.2405H19.2341ZM16.3783 22.2267C17.9693 22.3106 19.2341 23.6281 19.2341 25.2405H20.7341C20.7341 22.8261 18.8407 20.8545 16.4573 20.7287L16.3783 22.2267ZM10.9135 19.7118C11.3705 20.299 11.8884 20.859 12.7509 21.3046C13.5928 21.7396 14.7106 22.0392 16.3334 22.2229L16.5022 20.7325C14.9679 20.5587 14.0528 20.2889 13.4395 19.972C12.8467 19.6657 12.4869 19.2912 12.0972 18.7905L10.9135 19.7118ZM9.83222 14.8203C9.78678 15.4774 9.81357 16.3661 9.96215 17.239C10.1075 18.0927 10.3859 19.034 10.9135 19.7118L12.0972 18.7905C11.7975 18.4054 11.572 17.7573 11.4409 16.9873C11.3131 16.2365 11.2911 15.4671 11.3286 14.9238L9.83222 14.8203ZM9.84666 14.6491C9.84379 14.6971 9.8398 14.7447 9.83472 14.792L11.3261 14.9522C11.3337 14.8815 11.3397 14.8104 11.344 14.7389L9.84666 14.6491ZM9.85596 14.5535C9.85353 14.5754 9.85121 14.5975 9.84898 14.62L11.3417 14.768C11.3433 14.7511 11.3451 14.7346 11.3469 14.7185L9.85596 14.5535ZM10.969 15.2897L10.9722 15.2879L10.2306 13.984L10.2275 13.9858L10.969 15.2897ZM9.85216 14.465C9.85216 14.5116 9.85111 14.558 9.84904 14.6039L11.3475 14.6715C11.3506 14.603 11.3522 14.5342 11.3522 14.465H9.85216ZM9.83232 14.1164C9.8454 14.2305 9.85216 14.3468 9.85216 14.465H11.3522C11.3522 14.2896 11.3421 14.1162 11.3225 13.9455L9.83232 14.1164ZM11.7964 9.36821C10.1606 10.834 9.8141 12.9622 9.82749 14.0403L11.3274 14.0216C11.3168 13.1719 11.6101 11.5492 12.7974 10.4854L11.7964 9.36821ZM15.992 7.9532C15.1666 7.94099 13.4263 7.90788 11.7964 9.36821L12.7974 10.4854C13.9743 9.43089 15.1986 9.44163 15.9698 9.45303L15.992 7.9532ZM16.1756 7.95512C16.123 7.95512 16.0638 7.95426 15.992 7.9532L15.9698 9.45304C16.0388 9.45405 16.1097 9.45512 16.1756 9.45512V7.95512ZM18.0105 7.67693C17.2952 7.90747 16.5716 7.96548 16.1957 7.95539L16.1554 9.45485C16.6786 9.4689 17.5738 9.39367 18.4706 9.10461L18.0105 7.67693ZM18.9219 7.26014C18.6549 7.441 18.3579 7.57995 18.0402 7.66802L18.4409 9.11351C18.9184 8.98114 19.3639 8.77253 19.7632 8.50198L18.9219 7.26014ZM19.2718 6.99248C19.1708 7.08536 19.0579 7.17175 18.9346 7.25172L19.7505 8.51039C19.9369 8.38955 20.1177 8.25236 20.2871 8.09662L19.2718 6.99248ZM19.4939 8.23809L19.5007 8.24084L20.0582 6.84826L20.0513 6.84551L19.4939 8.23809ZM4.42512 8.75747C6.73097 8.75747 8.60024 6.88821 8.60024 4.58235H7.10024C7.10024 6.05978 5.90254 7.25747 4.42512 7.25747V8.75747ZM0.25 4.58235C0.25 6.88821 2.11926 8.75747 4.42512 8.75747V7.25747C2.94769 7.25747 1.75 6.05978 1.75 4.58235H0.25ZM4.42512 0.407234C2.11926 0.407234 0.25 2.2765 0.25 4.58235H1.75C1.75 3.10493 2.94769 1.90723 4.42512 1.90723V0.407234ZM8.60024 4.58235C8.60024 2.2765 6.73097 0.407234 4.42512 0.407234V1.90723C5.90254 1.90723 7.10024 3.10493 7.10024 4.58235H8.60024ZM4.42512 29.1239C6.73097 29.1239 8.60024 27.2547 8.60024 24.9488H7.10024C7.10024 26.4263 5.90254 27.6239 4.42512 27.6239V29.1239ZM0.25 24.9488C0.25 27.2547 2.11926 29.1239 4.42512 29.1239V27.6239C2.94769 27.6239 1.75 26.4263 1.75 24.9488H0.25ZM4.42512 20.7737C2.11926 20.7737 0.25 22.643 0.25 24.9488H1.75C1.75 23.4714 2.94769 22.2737 4.42512 22.2737V20.7737ZM8.60024 24.9488C8.60024 22.643 6.73097 20.7737 4.42512 20.7737V22.2737C5.90254 22.2737 7.10024 23.4714 7.10024 24.9488H8.60024Z" fill="url(#paint0_angular_191_3124)"/>
<defs>
<radialGradient id="paint0_angular_191_3124" cx="0" cy="0" r="1" gradientUnits="userSpaceOnUse" gradientTransform="translate(11 14.9998) rotate(90) scale(14.0086 10)">
<stop offset="0.175129" stop-color="#E191C6"/>
<stop offset="0.465" stop-color="#9ECEE5"/>
<stop offset="1" stop-color="#4A7BF6"/>
</radialGradient>
</defs>
</svg>
