<svg width="329" height="120" viewBox="0 0 329 120" fill="none" xmlns="http://www.w3.org/2000/svg">
<path fill-rule="evenodd" clip-rule="evenodd" d="M80.4305 28.0577C83.6527 25.108 85.6733 20.8673 85.6733 16.1546C85.6733 7.24454 78.4502 0.0214844 69.5402 0.0214844C60.6301 0.0214844 53.407 7.24454 53.407 16.1546C53.407 16.7533 53.4396 17.3444 53.5032 17.9262C53.6071 20.4217 53.3252 25.4018 51.4708 29.7706C49.4331 34.5713 44.7217 37.1529 42.6207 37.8437C41.4873 38.4873 36.2151 40.116 24.113 41.6026C15.6267 42.075 8.89077 49.1061 8.89077 57.7105C8.89077 64.2345 12.7632 69.8541 18.335 72.396C22.3254 74.3207 25.7216 74.6106 29.4283 74.9271C30.772 75.0418 32.1564 75.16 33.6248 75.3608C38.2848 75.9981 42.0056 79.0782 43.2834 80.5386C50.0264 88.8174 50.1728 96.0995 49.4471 100.312C49.1932 101.448 49.0593 102.63 49.0593 103.843C49.0593 112.753 56.2824 119.976 65.1925 119.976C74.1026 119.976 81.3256 112.753 81.3256 103.843C81.3256 95.2314 74.578 88.1956 66.0813 87.7342C52.5457 86.2047 48.653 82.8588 45.0259 78.1987C41.4758 73.6377 40.7069 64.5496 41.068 59.416C41.0921 59.1868 41.1114 58.9562 41.1257 58.7242C41.1352 58.6271 41.1451 58.5318 41.1555 58.4384L41.1406 58.4469C41.1515 58.2028 41.1571 57.9573 41.1571 57.7105C41.1571 57.0885 41.1218 56.4747 41.0533 55.871C40.9944 51.7539 42.355 43.6956 48.415 38.2658C54.4235 32.8822 60.77 32.9761 64.188 33.0266H64.1883H64.1886H64.1888H64.1891C64.4901 33.0311 64.7683 33.0352 65.0215 33.0352C66.8967 33.0856 70.234 32.8161 73.5958 31.7737C75.5572 31.2659 77.3737 30.3984 78.9709 29.2458C79.4913 28.8854 79.9875 28.493 80.4517 28.0662L80.4305 28.0577ZM29.3722 15.3923C29.3722 23.4914 22.8065 30.0571 14.7074 30.0571C6.60826 30.0571 0.0426025 23.4914 0.0426025 15.3923C0.0426025 7.29313 6.60826 0.727474 14.7074 0.727474C22.8065 0.727474 29.3722 7.29313 29.3722 15.3923ZM29.3722 102.599C29.3722 110.698 22.8065 117.264 14.7074 117.264C6.60826 117.264 0.0426025 110.698 0.0426025 102.599C0.0426025 94.4996 6.60826 87.934 14.7074 87.934C22.8065 87.934 29.3722 94.4996 29.3722 102.599ZM143.868 30.9517H138.436V92.2858H143.868V70.4684L150.965 62.3197C151.433 61.8524 151.841 61.6187 152.192 61.6187C152.659 61.6187 153.127 61.9108 153.594 62.4949L173.746 92.2858H180.493L156.135 56.9749L178.916 30.9517H172.169L146.321 61.1806C145.854 61.6479 145.416 61.8816 145.007 61.8816C144.657 61.8816 144.365 61.7648 144.131 61.5311C143.956 61.239 143.868 60.8594 143.868 60.3921V30.9517ZM188.901 30.9517H194.159V92.2858H188.901V30.9517ZM299.523 90.9715C302.385 92.6655 305.51 93.5125 308.898 93.5125C311.877 93.5125 314.681 92.8115 317.31 91.4096C319.938 89.9493 322.07 87.8172 323.706 85.0133V92.2858H328.613V30.9517H323.355V54.7844C321.661 52.1558 319.559 50.1697 317.047 48.8262C314.535 47.4827 311.819 46.8109 308.898 46.8109C305.51 46.8109 302.385 47.6871 299.523 49.4395C296.661 51.1335 294.353 53.7329 292.601 57.2377C290.848 60.7425 289.972 65.0651 289.972 70.2055C289.972 75.3459 290.848 79.6685 292.601 83.1733C294.353 86.6197 296.661 89.2191 299.523 90.9715ZM297.858 82.3847C296.923 80.5739 296.456 78.8507 296.456 77.2151V63.1083C296.456 61.5311 296.923 59.8371 297.858 58.0263C298.851 56.2155 300.341 54.6675 302.327 53.3824C304.313 52.0973 306.708 51.4548 309.511 51.4548C312.315 51.4548 314.769 52.0973 316.872 53.3824C318.974 54.6675 320.552 56.2155 321.603 58.0263C322.713 59.8371 323.268 61.5311 323.268 63.1083V77.2151C323.268 78.7923 322.713 80.5155 321.603 82.3847C320.552 84.1955 318.974 85.7435 316.872 87.0286C314.827 88.2553 312.374 88.8686 309.511 88.8686C306.708 88.8686 304.313 88.2553 302.327 87.0286C300.341 85.7435 298.851 84.1955 297.858 82.3847ZM252.68 102.974H260.917L263.195 96.753L246.284 48.0361H252.155L264.509 86.7643C264.743 87.4652 265.093 87.8157 265.561 87.8157C266.145 87.8157 266.524 87.4652 266.7 86.7643L279.054 48.0361H284.749L268.627 94.913C267.167 99.1771 265.123 102.39 262.494 104.551C259.865 106.771 257.237 107.881 254.608 107.881H252.68V102.974ZM219.455 93.3361C215.133 93.3361 211.628 92.197 208.941 89.9189C206.254 87.5823 204.91 84.428 204.91 80.4559C204.91 76.3085 206.371 73.0082 209.291 70.5548C212.212 68.1014 216.242 66.8747 221.383 66.8747H233.913V60.3032C233.913 58.8429 233.474 57.441 232.598 56.0975C231.78 54.6955 230.554 53.5857 228.918 52.7679C227.283 51.8917 225.326 51.4536 223.048 51.4536C220.361 51.4536 217.995 52.1253 215.95 53.4688C213.964 54.7539 212.416 56.6232 211.306 59.0765L206.575 56.7984C207.977 53.7025 210.138 51.2783 213.059 49.5259C216.038 47.7151 219.426 46.8097 223.223 46.8097C227.837 46.8097 231.634 48.1824 234.613 50.9279C237.651 53.6149 239.17 57.4118 239.17 62.3185V87.4655H244.777V92.2846H242.85C241.039 92.2846 239.345 91.496 237.768 89.9189C236.249 88.2833 235.256 86.3848 234.789 84.2236C233.562 87.0274 231.576 89.2471 228.831 90.8827C226.144 92.5183 223.018 93.3361 219.455 93.3361ZM210.518 82.4711C210.518 84.2235 211.423 85.7131 213.234 86.9398C215.103 88.1665 217.44 88.7798 220.244 88.7798C224.274 88.7798 227.545 87.5239 230.057 85.0121C232.627 82.4419 233.913 79.1124 233.913 75.0234V71.431H221.383C218.17 71.431 215.541 72.0443 213.497 73.271C211.511 74.4977 210.518 76.0457 210.518 77.9149V82.4711Z" fill="url(#paint0_linear_661_1070)"/>
<defs>
<linearGradient id="paint0_linear_661_1070" x1="-42.1362" y1="0.0214751" x2="296.614" y2="81.8202" gradientUnits="userSpaceOnUse">
<stop stop-color="#B97BCC"/>
<stop offset="1" stop-color="#4A7BF6"/>
</linearGradient>
</defs>
</svg>
