<svg width="22" height="30" viewBox="0 0 22 30" fill="none" xmlns="http://www.w3.org/2000/svg">
<path d="M19.7726 7.55059L19.2667 6.9969L18.3846 7.80286L19.4939 8.24688L19.7726 7.55059ZM13.4846 5.16756L14.2338 5.13337L14.2328 5.11112L14.2304 5.08896L13.4846 5.16756ZM13.0106 7.95143L13.701 8.24447L13.0106 7.95143ZM10.9436 9.83697L10.7094 9.12449L10.6383 9.14785L10.5732 9.1848L10.9436 9.83697ZM6.66517 10.7095L6.69823 11.4587L6.72783 11.4574L6.75724 11.4538L6.66517 10.7095ZM5.22501 17.882L5.55699 17.2094L5.54567 17.204L5.22501 17.882ZM7.86241 18.4958L7.93894 17.7496L7.9262 17.7486L7.86241 18.4958ZM7.86247 18.4958L7.78593 19.242L7.79867 19.2431L7.86247 18.4958ZM8.84253 18.5971L8.74091 19.3402H8.74092L8.84253 18.5971ZM11.0984 19.8065L11.6799 19.3328L11.6716 19.3226L11.6629 19.3126L11.0984 19.8065ZM12.5363 24.4343L13.2687 24.5958L13.2723 24.5795L13.2752 24.5632L12.5363 24.4343ZM16.4178 21.4865L16.3334 22.2317L16.3558 22.2343L16.3783 22.2354L16.4178 21.4865ZM11.5054 19.26L10.9135 19.7206H10.9135L11.5054 19.26ZM10.5804 14.8809L9.83472 14.8008L9.8332 14.8149L9.83222 14.8291L10.5804 14.8809ZM10.5953 14.7028L9.84898 14.6288L9.84754 14.6433L9.84666 14.6579L10.5953 14.7028ZM10.6014 14.6447L11.3469 14.7273L11.5086 13.2661L10.2306 13.9928L10.6014 14.6447ZM10.5983 14.6465L9.84904 14.6127L9.7878 15.9702L10.969 15.2985L10.5983 14.6465ZM10.5774 14.0397L9.82749 14.049L9.82796 14.0872L9.83232 14.1252L10.5774 14.0397ZM12.2969 9.93558L11.7964 9.377L12.2969 9.93558ZM15.9809 8.71191L15.9698 9.46182L15.9698 9.46182L15.9809 8.71191ZM16.1756 8.71391L16.1957 7.96418L16.1856 7.96391H16.1756V8.71391ZM18.2406 8.39956L18.0402 7.67681L18.0253 7.68096L18.0105 7.68572L18.2406 8.39956ZM19.3425 7.88984L18.9346 7.26051L18.9282 7.26465L18.9219 7.26893L19.3425 7.88984ZM19.7794 7.55334L20.2871 8.10541L21.1635 7.2995L20.0582 6.85705L19.7794 7.55334ZM20.2498 4.76807C20.2498 5.6507 19.8718 6.44399 19.2667 6.9969L20.2785 8.10428C21.1816 7.27915 21.7498 6.08942 21.7498 4.76807H20.2498ZM17.2317 1.75C18.8985 1.75 20.2498 3.10123 20.2498 4.76807H21.7498C21.7498 2.27281 19.727 0.25 17.2317 0.25V1.75ZM14.2136 4.76807C14.2136 3.10123 15.5649 1.75 17.2317 1.75V0.25C14.7364 0.25 12.7136 2.27281 12.7136 4.76807H14.2136ZM14.2304 5.08896C14.2193 4.98375 14.2136 4.87671 14.2136 4.76807H12.7136C12.7136 4.92931 12.7221 5.08883 12.7387 5.24617L14.2304 5.08896ZM13.701 8.24447C14.198 7.07359 14.263 5.77385 14.2338 5.13337L12.7353 5.20175C12.7588 5.71495 12.6982 6.76791 12.3203 7.65839L13.701 8.24447ZM11.1779 10.5495C11.7862 10.3494 13.1102 9.63638 13.701 8.24447L12.3203 7.65839C11.9592 8.50897 11.0824 9.00184 10.7094 9.12449L11.1779 10.5495ZM6.75724 11.4538C8.17331 11.2786 9.20268 11.0941 9.92007 10.931C10.6033 10.7757 11.0749 10.6249 11.314 10.4891L10.5732 9.1848C10.5787 9.18171 10.5151 9.21434 10.3306 9.27279C10.1601 9.32679 9.91647 9.39356 9.58762 9.4683C8.93041 9.61768 7.95222 9.79456 6.57311 9.96514L6.75724 11.4538ZM3.81603 14.4738C3.81603 12.8525 5.09476 11.5295 6.69823 11.4587L6.63212 9.9602C4.23028 10.0662 2.31603 12.0462 2.31603 14.4738H3.81603ZM5.54567 17.204C4.52178 16.7198 3.81603 15.6785 3.81603 14.4738H2.31603C2.31603 16.28 3.37591 17.8371 4.90434 18.56L5.54567 17.204ZM7.9262 17.7486C7.04677 17.6735 6.3698 17.6107 5.55694 17.2095L4.89307 18.5546C5.98457 19.0933 6.91787 19.1679 7.79862 19.2431L7.9262 17.7486ZM7.93899 17.7498L7.93893 17.7498L7.78589 19.2419L7.78594 19.2419L7.93899 17.7498ZM8.94416 17.8541C8.57959 17.8042 8.23796 17.7752 7.92626 17.7486L7.79867 19.2431C8.11458 19.2701 8.41962 19.2963 8.74091 19.3402L8.94416 17.8541ZM11.6629 19.3126C11.29 18.8865 10.2693 18.0353 8.94415 17.8541L8.74092 19.3402C9.59254 19.4567 10.3099 20.0443 10.534 20.3004L11.6629 19.3126ZM13.2752 24.5632C13.4785 23.3977 13.4159 21.4642 11.6799 19.3328L10.5169 20.2801C11.941 22.0285 11.9369 23.5063 11.7975 24.3054L13.2752 24.5632ZM13.198 25.2492C13.198 25.0241 13.2225 24.8055 13.2687 24.5958L11.8039 24.2728C11.7344 24.5879 11.698 24.9148 11.698 25.2492H13.198ZM16.216 28.2673C14.5492 28.2673 13.198 26.9161 13.198 25.2492H11.698C11.698 27.7445 13.7208 29.7673 16.216 29.7673V28.2673ZM19.2341 25.2492C19.2341 26.9161 17.8829 28.2673 16.216 28.2673V29.7673C18.7113 29.7673 20.7341 27.7445 20.7341 25.2492H19.2341ZM16.3783 22.2354C17.9693 22.3194 19.2341 23.6369 19.2341 25.2492H20.7341C20.7341 22.8349 18.8407 20.8633 16.4573 20.7375L16.3783 22.2354ZM10.9135 19.7206C11.3705 20.3078 11.8884 20.8677 12.7509 21.3134C13.5928 21.7484 14.7106 22.0479 16.3334 22.2317L16.5022 20.7412C14.9679 20.5675 14.0528 20.2977 13.4395 19.9808C12.8467 19.6745 12.4869 19.3 12.0972 18.7993L10.9135 19.7206ZM9.83222 14.8291C9.78678 15.4862 9.81357 16.3749 9.96215 17.2478C10.1075 18.1015 10.3859 19.0428 10.9135 19.7206L12.0972 18.7993C11.7975 18.4142 11.572 17.7661 11.4409 16.9961C11.3131 16.2453 11.2911 15.4759 11.3286 14.9326L9.83222 14.8291ZM9.84666 14.6579C9.84379 14.7059 9.8398 14.7535 9.83472 14.8008L11.3261 14.961C11.3337 14.8903 11.3397 14.8192 11.344 14.7477L9.84666 14.6579ZM9.85596 14.5622C9.85353 14.5841 9.85121 14.6063 9.84898 14.6288L11.3417 14.7768C11.3433 14.7599 11.3451 14.7434 11.3469 14.7273L9.85596 14.5622ZM10.969 15.2985L10.9722 15.2967L10.2306 13.9928L10.2275 13.9946L10.969 15.2985ZM9.85216 14.4738C9.85216 14.5204 9.85111 14.5667 9.84904 14.6127L11.3475 14.6803C11.3506 14.6118 11.3522 14.543 11.3522 14.4738H9.85216ZM9.83232 14.1252C9.8454 14.2393 9.85216 14.3556 9.85216 14.4738H11.3522C11.3522 14.2984 11.3421 14.125 11.3225 13.9543L9.83232 14.1252ZM11.7964 9.377C10.1606 10.8427 9.8141 12.9709 9.82749 14.049L11.3274 14.0304C11.3168 13.1807 11.6101 11.558 12.7974 10.4942L11.7964 9.377ZM15.992 7.96199C15.1666 7.94978 13.4263 7.91667 11.7964 9.377L12.7974 10.4942C13.9743 9.43968 15.1986 9.45042 15.9698 9.46182L15.992 7.96199ZM16.1756 7.96391C16.123 7.96391 16.0638 7.96305 15.992 7.96199L15.9698 9.46182C16.0388 9.46284 16.1097 9.46391 16.1756 9.46391V7.96391ZM18.0105 7.68572C17.2952 7.91626 16.5716 7.97427 16.1957 7.96418L16.1554 9.46364C16.6786 9.47768 17.5738 9.40246 18.4706 9.11339L18.0105 7.68572ZM18.9219 7.26893C18.6549 7.44979 18.3579 7.58874 18.0402 7.67681L18.4409 9.1223C18.9184 8.98993 19.3639 8.78132 19.7632 8.51076L18.9219 7.26893ZM19.2718 7.00127C19.1708 7.09415 19.0579 7.18054 18.9346 7.26051L19.7505 8.51918C19.9369 8.39834 20.1177 8.26115 20.2871 8.10541L19.2718 7.00127ZM19.4939 8.24688L19.5007 8.24963L20.0582 6.85705L20.0513 6.8543L19.4939 8.24688ZM4.42512 8.76626C6.73097 8.76626 8.60024 6.897 8.60024 4.59114H7.10024C7.10024 6.06857 5.90254 7.26626 4.42512 7.26626V8.76626ZM0.25 4.59114C0.25 6.897 2.11926 8.76626 4.42512 8.76626V7.26626C2.94769 7.26626 1.75 6.06857 1.75 4.59114H0.25ZM4.42512 0.416023C2.11926 0.416023 0.25 2.28529 0.25 4.59114H1.75C1.75 3.11372 2.94769 1.91602 4.42512 1.91602V0.416023ZM8.60024 4.59114C8.60024 2.28529 6.73097 0.416023 4.42512 0.416023V1.91602C5.90254 1.91602 7.10024 3.11372 7.10024 4.59114H8.60024ZM4.42512 29.1327C6.73097 29.1327 8.60024 27.2635 8.60024 24.9576H7.10024C7.10024 26.435 5.90254 27.6327 4.42512 27.6327V29.1327ZM0.25 24.9576C0.25 27.2635 2.11926 29.1327 4.42512 29.1327V27.6327C2.94769 27.6327 1.75 26.435 1.75 24.9576H0.25ZM4.42512 20.7825C2.11926 20.7825 0.25 22.6518 0.25 24.9576H1.75C1.75 23.4802 2.94769 22.2825 4.42512 22.2825V20.7825ZM8.60024 24.9576C8.60024 22.6518 6.73097 20.7825 4.42512 20.7825V22.2825C5.90254 22.2825 7.10024 23.4802 7.10024 24.9576H8.60024Z" fill="#757575"/>
</svg>
