<svg width="50" height="45" viewBox="0 0 50 45" fill="none" xmlns="http://www.w3.org/2000/svg">
<path d="M33.1061 27.0484C26.4148 38.5259 17.5286 45.8509 13.2586 43.4097C8.98857 40.9684 10.9511 29.6847 17.6436 18.2085C24.3348 6.73095 33.2211 -0.594047 37.4911 1.8472C41.7611 4.28845 39.7986 15.5722 33.1061 27.0484Z" fill="black" fill-opacity="0.1" stroke="black" stroke-width="2"/>
<path d="M1.00001 22.6284C1.00001 27.4609 11.6332 31.3784 24.75 31.3784C37.8668 31.3784 48.5 27.4609 48.5 22.6284C48.5 17.7959 37.8668 13.8784 24.75 13.8784C11.6332 13.8784 1.00001 17.7959 1.00001 22.6284Z" fill="black" fill-opacity="0.1" stroke="black" stroke-width="2"/>
<path d="M16.3936 27.0484C23.0848 38.5259 31.9711 45.8509 36.2411 43.4097C40.5111 40.9684 38.5486 29.6847 31.8561 18.2085C25.1648 6.73095 16.2786 -0.594047 12.0086 1.8472C7.73857 4.28845 9.70107 15.5722 16.3936 27.0484Z" fill="black" fill-opacity="0.1" stroke="black" stroke-width="2"/>
<path d="M24.75 26.3784C25.7446 26.3784 26.6984 25.9833 27.4017 25.2801C28.1049 24.5768 28.5 23.623 28.5 22.6284C28.5 21.6339 28.1049 20.68 27.4017 19.9768C26.6984 19.2735 25.7446 18.8784 24.75 18.8784C23.7554 18.8784 22.8016 19.2735 22.0983 19.9768C21.3951 20.68 21 21.6339 21 22.6284C21 23.623 21.3951 24.5768 22.0983 25.2801C22.8016 25.9833 23.7554 26.3784 24.75 26.3784Z" fill="black" stroke="black" stroke-width="2"/>
</svg>
